# Blender 3.6.2
# www.blender.org
mtllib fence.mtl
o Cube.002
v -0.810851 0.203285 0.080693
v -0.810851 0.345327 0.080693
v -0.810880 0.203285 0.047602
v -0.810880 0.345327 0.047602
v 1.189148 0.203285 0.078973
v 1.189148 0.345327 0.078973
v 1.189120 0.203285 0.045882
v 1.189120 0.345327 0.045882
v -0.810851 0.853295 0.080693
v -0.810851 0.995337 0.080693
v -0.810880 0.853295 0.047602
v -0.810880 0.995337 0.047602
v 1.189148 0.853295 0.078973
v 1.189148 0.995337 0.078973
v 1.189120 0.853295 0.045883
v 1.189120 0.995337 0.045883
v -0.564104 0.005410 0.078200
v -0.564045 0.005410 0.146463
v -0.730157 0.005410 0.146606
v -0.730216 0.005410 0.078343
v -0.564104 1.142182 0.078200
v -0.564045 1.142182 0.146463
v -0.730157 1.142182 0.146606
v -0.730216 1.142182 0.078343
v -0.696216 1.186175 0.078314
v -0.598103 1.186175 0.078230
v -0.681848 1.200440 0.078302
v -0.665115 1.209408 0.078287
v -0.647160 1.212467 0.078272
v -0.629204 1.209408 0.078256
v -0.612472 1.200440 0.078242
v -0.598045 1.186175 0.146493
v -0.696157 1.186175 0.146577
v -0.612413 1.200440 0.146505
v -0.629145 1.209408 0.146519
v -0.647101 1.212467 0.146535
v -0.665057 1.209408 0.146550
v -0.681789 1.200440 0.146565
v -0.231880 0.005410 0.077915
v -0.231822 0.005410 0.146178
v -0.397933 0.005410 0.146320
v -0.397992 0.005410 0.078057
v -0.231880 1.142182 0.077915
v -0.231822 1.142182 0.146178
v -0.397933 1.142182 0.146320
v -0.397992 1.142182 0.078057
v -0.363992 1.186175 0.078028
v -0.265880 1.186175 0.077944
v -0.349624 1.200440 0.078016
v -0.332892 1.209408 0.078002
v -0.314936 1.212467 0.077986
v -0.296980 1.209408 0.077971
v -0.280248 1.200440 0.077956
v -0.265821 1.186175 0.146207
v -0.363934 1.186175 0.146291
v -0.280189 1.200440 0.146219
v -0.296922 1.209408 0.146234
v -0.314877 1.212467 0.146249
v -0.332833 1.209408 0.146264
v -0.349565 1.200440 0.146279
v 0.100343 0.005410 0.077629
v 0.100402 0.005410 0.145892
v -0.065710 0.005410 0.146035
v -0.065768 0.005410 0.077772
v 0.100343 1.142182 0.077629
v 0.100402 1.142182 0.145892
v -0.065710 1.142182 0.146035
v -0.065768 1.142182 0.077772
v -0.031769 1.186175 0.077743
v 0.066344 1.186175 0.077658
v -0.017400 1.200440 0.077730
v -0.000668 1.209408 0.077716
v 0.017288 1.212467 0.077700
v 0.035243 1.209408 0.077685
v 0.051976 1.200440 0.077671
v 0.066402 1.186175 0.145921
v -0.031710 1.186175 0.146006
v 0.052034 1.200440 0.145934
v 0.035302 1.209408 0.145948
v 0.017346 1.212467 0.145963
v -0.000610 1.209408 0.145979
v -0.017342 1.200440 0.145993
v 0.432567 0.005410 0.077343
v 0.432626 0.005410 0.145606
v 0.266514 0.005410 0.145749
v 0.266455 0.005410 0.077486
v 0.432567 1.142182 0.077343
v 0.432626 1.142182 0.145606
v 0.266514 1.142182 0.145749
v 0.266455 1.142182 0.077486
v 0.300455 1.186175 0.077457
v 0.398568 1.186175 0.077373
v 0.314823 1.200440 0.077445
v 0.331555 1.209408 0.077430
v 0.349511 1.212467 0.077415
v 0.367467 1.209408 0.077399
v 0.384199 1.200440 0.077385
v 0.398626 1.186175 0.145636
v 0.300514 1.186175 0.145720
v 0.384258 1.200440 0.145648
v 0.367526 1.209408 0.145662
v 0.349570 1.212467 0.145678
v 0.331614 1.209408 0.145693
v 0.314882 1.200440 0.145708
v 0.764791 0.005410 0.077058
v 0.764849 0.005410 0.145321
v 0.598738 0.005410 0.145463
v 0.598679 0.005410 0.077200
v 0.764791 1.142182 0.077058
v 0.764849 1.142182 0.145321
v 0.598738 1.142182 0.145463
v 0.598679 1.142182 0.077200
v 0.632679 1.186175 0.077171
v 0.730791 1.186175 0.077087
v 0.647047 1.200440 0.077159
v 0.663779 1.209408 0.077145
v 0.681735 1.212467 0.077129
v 0.699691 1.209408 0.077114
v 0.716423 1.200440 0.077099
v 0.730850 1.186175 0.145350
v 0.632737 1.186175 0.145434
v 0.716482 1.200440 0.145362
v 0.699749 1.209408 0.145377
v 0.681794 1.212467 0.145392
v 0.663838 1.209408 0.145407
v 0.647106 1.200440 0.145422
v 1.097014 0.005410 0.076772
v 1.097073 0.005410 0.145035
v 0.930961 0.005410 0.145178
v 0.930903 0.005410 0.076915
v 1.097014 1.142182 0.076772
v 1.097073 1.142182 0.145035
v 0.930961 1.142182 0.145178
v 0.930903 1.142182 0.076915
v 0.964902 1.186175 0.076886
v 1.063015 1.186175 0.076801
v 0.979271 1.200440 0.076873
v 0.996003 1.209408 0.076859
v 1.013958 1.212467 0.076843
v 1.031914 1.209408 0.076828
v 1.048646 1.200440 0.076814
v 1.063073 1.186175 0.145064
v 0.964961 1.186175 0.145149
v 1.048705 1.200440 0.145077
v 1.031973 1.209408 0.145091
v 1.014017 1.212467 0.145106
v 0.996061 1.209408 0.145122
v 0.979329 1.200440 0.145136
vn -1.0000 -0.0000 0.0009
vn -0.0009 -0.0000 -1.0000
vn 1.0000 -0.0000 -0.0009
vn 0.0009 -0.0000 1.0000
vn -0.0000 -1.0000 -0.0000
vn -0.0000 1.0000 -0.0000
vn 0.7912 0.6115 -0.0007
vn -0.7046 0.7096 0.0006
vn -0.4724 0.8814 0.0004
vn -0.1679 0.9858 0.0001
vn 0.1679 0.9858 -0.0001
vn 0.4724 0.8814 -0.0004
vn 0.7046 0.7096 -0.0006
vn -0.7912 0.6115 0.0007
vt 0.000000 0.000000
vt 0.473376 1.000403
vt 0.420073 1.000403
vt 0.420073 -0.185465
vt 0.473377 -0.185465
vt 0.350877 -0.155687
vt 0.402605 -0.155687
vt 0.402605 0.995122
vt 0.350877 0.995122
vt 0.543326 0.711689
vt 0.543328 -0.474108
vt 0.553352 -0.474108
vt 0.553352 0.711689
vt 0.563476 -0.474108
vt 0.563475 0.711689
vt 0.553451 0.711689
vt 0.553449 -0.474108
vt 0.554051 0.003849
vt 0.554051 0.034334
vt 0.488571 0.034334
vt 0.488571 0.003849
vt 0.263497 0.510410
vt 0.263498 0.002747
vt 0.328978 0.002747
vt 0.328978 0.510410
vt 0.315575 0.530056
vt 0.309911 0.536426
vt 0.303316 0.540431
vt 0.296238 0.541797
vt 0.289160 0.540431
vt 0.282564 0.536426
vt 0.276900 0.530056
vt 0.370750 0.028871
vt 0.370751 0.536532
vt 0.340265 0.536532
vt 0.340265 0.028871
vt 0.401378 0.028871
vt 0.401378 0.536532
vt 0.370893 0.536532
vt 0.370893 0.028871
vt 0.370750 0.560314
vt 0.340265 0.560314
vt 0.407278 0.005372
vt 0.407278 0.513034
vt 0.393875 0.532680
vt 0.388212 0.539051
vt 0.381616 0.543056
vt 0.374538 0.544422
vt 0.367460 0.543056
vt 0.360864 0.539051
vt 0.355200 0.532680
vt 0.341798 0.513034
vt 0.341798 0.005372
vt 0.395347 0.259615
vt 0.374874 0.259615
vt 0.374874 0.246922
vt 0.395347 0.246922
vt 0.374874 0.235432
vt 0.395347 0.235432
vt 0.374874 0.224698
vt 0.395347 0.224698
vt 0.374874 0.213963
vt 0.395347 0.213963
vt 0.374874 0.202473
vt 0.395347 0.202473
vt 0.374874 0.189780
vt 0.395347 0.189780
vt 0.370893 0.560314
vt 0.401378 0.560314
vt 0.329304 0.008189
vt 0.329304 0.038674
vt 0.263823 0.038674
vt 0.263823 0.008189
vt 0.040231 0.519158
vt 0.040231 0.011496
vt 0.105711 0.011496
vt 0.105711 0.519158
vt 0.092309 0.538805
vt 0.086645 0.545175
vt 0.080049 0.549180
vt 0.072971 0.550546
vt 0.065893 0.549180
vt 0.059297 0.545175
vt 0.053633 0.538805
vt 0.145263 0.010394
vt 0.145263 0.518055
vt 0.114778 0.518055
vt 0.114778 0.010394
vt 0.175891 0.010394
vt 0.175891 0.518055
vt 0.145406 0.518055
vt 0.145406 0.010394
vt 0.145263 0.541837
vt 0.114778 0.541837
vt 0.171673 0.011496
vt 0.171673 0.519158
vt 0.158270 0.538805
vt 0.152606 0.545175
vt 0.146011 0.549180
vt 0.138933 0.550546
vt 0.131855 0.549180
vt 0.125259 0.545175
vt 0.119595 0.538805
vt 0.106192 0.519158
vt 0.106192 0.011496
vt 0.167074 0.234209
vt 0.146602 0.234209
vt 0.146602 0.221515
vt 0.167074 0.221515
vt 0.146602 0.210025
vt 0.167074 0.210025
vt 0.146602 0.199291
vt 0.167074 0.199291
vt 0.146602 0.188557
vt 0.167074 0.188557
vt 0.146602 0.177067
vt 0.167074 0.177067
vt 0.146602 0.164373
vt 0.167074 0.164373
vt 0.145406 0.541838
vt 0.175891 0.541838
vt 0.298213 0.011496
vt 0.298213 0.041981
vt 0.232733 0.041981
vt 0.232733 0.011496
vt 0.266750 0.951257
vt 0.266750 0.443595
vt 0.332231 0.443595
vt 0.332230 0.951257
vt 0.318828 0.970904
vt 0.313164 0.977274
vt 0.306568 0.981279
vt 0.299490 0.982645
vt 0.292412 0.981279
vt 0.285816 0.977274
vt 0.280152 0.970904
vt 0.369842 0.180930
vt 0.369842 0.688591
vt 0.339357 0.688591
vt 0.339357 0.180930
vt 0.400470 0.180930
vt 0.400470 0.688591
vt 0.369985 0.688591
vt 0.369985 0.180930
vt 0.369842 0.712373
vt 0.339357 0.712373
vt 0.398192 0.443595
vt 0.398192 0.951257
vt 0.384790 0.970904
vt 0.379126 0.977274
vt 0.372530 0.981279
vt 0.365452 0.982645
vt 0.358374 0.981279
vt 0.351778 0.977274
vt 0.346114 0.970904
vt 0.332712 0.951257
vt 0.332712 0.443595
vt 0.389530 0.643638
vt 0.369058 0.643638
vt 0.369058 0.630945
vt 0.389530 0.630945
vt 0.369058 0.619455
vt 0.389530 0.619455
vt 0.369058 0.608721
vt 0.389530 0.608721
vt 0.369058 0.597986
vt 0.389530 0.597986
vt 0.369058 0.586496
vt 0.389530 0.586496
vt 0.369058 0.573803
vt 0.389530 0.573803
vt 0.369985 0.712374
vt 0.400470 0.712374
vt 0.635839 0.130933
vt 0.635839 0.161418
vt 0.570358 0.161418
vt 0.570358 0.130933
vt 0.569986 0.621930
vt 0.569986 0.114267
vt 0.635467 0.114267
vt 0.635467 0.621930
vt 0.622064 0.641576
vt 0.616400 0.647947
vt 0.609804 0.651951
vt 0.602726 0.653317
vt 0.595648 0.651951
vt 0.589053 0.647947
vt 0.583389 0.641576
vt 0.606740 0.214261
vt 0.606740 0.721922
vt 0.576255 0.721922
vt 0.576255 0.214261
vt 0.637368 0.214261
vt 0.637368 0.721923
vt 0.606883 0.721923
vt 0.606883 0.214261
vt 0.606740 0.745705
vt 0.576255 0.745705
vt 0.701428 0.114267
vt 0.701428 0.621930
vt 0.688026 0.641576
vt 0.682362 0.647947
vt 0.675766 0.651951
vt 0.668688 0.653317
vt 0.661610 0.651951
vt 0.655014 0.647947
vt 0.649350 0.641576
vt 0.635948 0.621930
vt 0.635948 0.114267
vt 0.626428 0.686691
vt 0.605955 0.686691
vt 0.605955 0.673998
vt 0.626428 0.673998
vt 0.605955 0.662508
vt 0.626428 0.662508
vt 0.605955 0.651773
vt 0.626428 0.651773
vt 0.605955 0.641039
vt 0.626428 0.641039
vt 0.605955 0.629549
vt 0.626428 0.629549
vt 0.605955 0.616856
vt 0.626428 0.616856
vt 0.606883 0.745705
vt 0.637368 0.745705
vt 0.779470 0.078159
vt 0.779470 0.108644
vt 0.713989 0.108644
vt 0.713989 0.078159
vt 0.719213 0.513603
vt 0.719213 0.005941
vt 0.784694 0.005941
vt 0.784693 0.513603
vt 0.771291 0.533249
vt 0.765627 0.539620
vt 0.759031 0.543625
vt 0.751953 0.544991
vt 0.744875 0.543625
vt 0.738279 0.539620
vt 0.732615 0.533249
vt 0.746640 0.044827
vt 0.746640 0.552489
vt 0.716155 0.552488
vt 0.716155 0.044827
vt 0.777268 0.044827
vt 0.777268 0.552489
vt 0.746783 0.552489
vt 0.746783 0.044827
vt 0.746640 0.576271
vt 0.716155 0.576271
vt 0.850655 0.005941
vt 0.850655 0.513603
vt 0.837253 0.533249
vt 0.831589 0.539620
vt 0.824993 0.543625
vt 0.817915 0.544991
vt 0.810837 0.543625
vt 0.804241 0.539620
vt 0.798577 0.533249
vt 0.785175 0.513603
vt 0.785175 0.005941
vt 0.770059 0.464483
vt 0.749586 0.464483
vt 0.749586 0.451789
vt 0.770059 0.451789
vt 0.749586 0.440299
vt 0.770059 0.440299
vt 0.749586 0.429565
vt 0.770059 0.429565
vt 0.749586 0.418831
vt 0.770059 0.418831
vt 0.749586 0.407341
vt 0.770059 0.407341
vt 0.749586 0.394647
vt 0.770059 0.394647
vt 0.746783 0.576271
vt 0.777268 0.576271
vt 0.982114 0.165477
vt 0.982114 0.195962
vt 0.916634 0.195962
vt 0.916634 0.165477
vt 0.871186 0.538315
vt 0.871187 0.030653
vt 0.936667 0.030653
vt 0.936667 0.538315
vt 0.923264 0.557961
vt 0.917600 0.564332
vt 0.911005 0.568337
vt 0.903927 0.569703
vt 0.896848 0.568337
vt 0.890253 0.564332
vt 0.884589 0.557961
vt 0.961069 0.011496
vt 0.961069 0.519157
vt 0.930584 0.519157
vt 0.930584 0.011496
vt 0.991697 0.011496
vt 0.991697 0.519158
vt 0.961212 0.519157
vt 0.961212 0.011496
vt 0.961069 0.542940
vt 0.930584 0.542940
vt 1.002628 0.030653
vt 1.002628 0.538315
vt 0.989226 0.557961
vt 0.983562 0.564332
vt 0.976966 0.568337
vt 0.969888 0.569703
vt 0.962810 0.568337
vt 0.956214 0.564332
vt 0.950550 0.557961
vt 0.937148 0.538315
vt 0.937148 0.030653
vt 0.952670 0.323255
vt 0.932197 0.323255
vt 0.932197 0.310562
vt 0.952670 0.310562
vt 0.932197 0.299071
vt 0.952670 0.299071
vt 0.932197 0.288337
vt 0.952670 0.288337
vt 0.932197 0.277603
vt 0.952670 0.277603
vt 0.932197 0.266113
vt 0.952670 0.266113
vt 0.932197 0.253419
vt 0.952670 0.253419
vt 0.961212 0.542940
vt 0.991697 0.542940
s 0
usemtl Material.004
f 1/1/1 2/1/1 4/1/1 3/1/1
f 3/2/2 4/3/2 8/4/2 7/5/2
f 7/1/3 8/1/3 6/1/3 5/1/3
f 5/6/4 6/7/4 2/8/4 1/9/4
f 3/10/5 7/11/5 5/12/5 1/13/5
f 8/14/6 4/15/6 2/16/6 6/17/6
f 9/1/1 10/1/1 12/1/1 11/1/1
f 11/2/2 12/3/2 16/4/2 15/5/2
f 15/1/3 16/1/3 14/1/3 13/1/3
f 13/6/4 14/7/4 10/8/4 9/9/4
f 11/10/5 15/11/5 13/12/5 9/13/5
f 16/14/6 12/15/6 10/16/6 14/17/6
usemtl Material.003
f 17/18/5 18/19/5 19/20/5 20/21/5
f 21/22/2 17/23/2 20/24/2 24/25/2 25/26/2 27/27/2 28/28/2 29/29/2 30/30/2 31/31/2 26/32/2
f 17/33/3 21/34/3 22/35/3 18/36/3
f 19/37/1 23/38/1 24/39/1 20/40/1
f 21/34/7 26/41/7 32/42/7 22/35/7
f 18/43/4 22/44/4 32/45/4 34/46/4 35/47/4 36/48/4 37/49/4 38/50/4 33/51/4 23/52/4 19/53/4
f 25/54/8 33/55/8 38/56/8 27/57/8
f 27/57/9 38/56/9 37/58/9 28/59/9
f 28/59/10 37/58/10 36/60/10 29/61/10
f 29/61/11 36/60/11 35/62/11 30/63/11
f 30/63/12 35/62/12 34/64/12 31/65/12
f 31/65/13 34/64/13 32/66/13 26/67/13
f 25/68/14 24/39/14 23/38/14 33/69/14
f 39/70/5 40/71/5 41/72/5 42/73/5
f 43/74/2 39/75/2 42/76/2 46/77/2 47/78/2 49/79/2 50/80/2 51/81/2 52/82/2 53/83/2 48/84/2
f 39/85/3 43/86/3 44/87/3 40/88/3
f 41/89/1 45/90/1 46/91/1 42/92/1
f 43/86/7 48/93/7 54/94/7 44/87/7
f 40/95/4 44/96/4 54/97/4 56/98/4 57/99/4 58/100/4 59/101/4 60/102/4 55/103/4 45/104/4 41/105/4
f 47/106/8 55/107/8 60/108/8 49/109/8
f 49/109/9 60/108/9 59/110/9 50/111/9
f 50/111/10 59/110/10 58/112/10 51/113/10
f 51/113/11 58/112/11 57/114/11 52/115/11
f 52/115/12 57/114/12 56/116/12 53/117/12
f 53/117/13 56/116/13 54/118/13 48/119/13
f 47/120/14 46/91/14 45/90/14 55/121/14
f 61/122/5 62/123/5 63/124/5 64/125/5
f 65/126/2 61/127/2 64/128/2 68/129/2 69/130/2 71/131/2 72/132/2 73/133/2 74/134/2 75/135/2 70/136/2
f 61/137/3 65/138/3 66/139/3 62/140/3
f 63/141/1 67/142/1 68/143/1 64/144/1
f 65/138/7 70/145/7 76/146/7 66/139/7
f 62/147/4 66/148/4 76/149/4 78/150/4 79/151/4 80/152/4 81/153/4 82/154/4 77/155/4 67/156/4 63/157/4
f 69/158/8 77/159/8 82/160/8 71/161/8
f 71/161/9 82/160/9 81/162/9 72/163/9
f 72/163/10 81/162/10 80/164/10 73/165/10
f 73/165/11 80/164/11 79/166/11 74/167/11
f 74/167/12 79/166/12 78/168/12 75/169/12
f 75/169/13 78/168/13 76/170/13 70/171/13
f 69/172/14 68/143/14 67/142/14 77/173/14
f 83/174/5 84/175/5 85/176/5 86/177/5
f 87/178/2 83/179/2 86/180/2 90/181/2 91/182/2 93/183/2 94/184/2 95/185/2 96/186/2 97/187/2 92/188/2
f 83/189/3 87/190/3 88/191/3 84/192/3
f 85/193/1 89/194/1 90/195/1 86/196/1
f 87/190/7 92/197/7 98/198/7 88/191/7
f 84/199/4 88/200/4 98/201/4 100/202/4 101/203/4 102/204/4 103/205/4 104/206/4 99/207/4 89/208/4 85/209/4
f 91/210/8 99/211/8 104/212/8 93/213/8
f 93/213/9 104/212/9 103/214/9 94/215/9
f 94/215/10 103/214/10 102/216/10 95/217/10
f 95/217/11 102/216/11 101/218/11 96/219/11
f 96/219/12 101/218/12 100/220/12 97/221/12
f 97/221/13 100/220/13 98/222/13 92/223/13
f 91/224/14 90/195/14 89/194/14 99/225/14
f 105/226/5 106/227/5 107/228/5 108/229/5
f 109/230/2 105/231/2 108/232/2 112/233/2 113/234/2 115/235/2 116/236/2 117/237/2 118/238/2 119/239/2 114/240/2
f 105/241/3 109/242/3 110/243/3 106/244/3
f 107/245/1 111/246/1 112/247/1 108/248/1
f 109/242/7 114/249/7 120/250/7 110/243/7
f 106/251/4 110/252/4 120/253/4 122/254/4 123/255/4 124/256/4 125/257/4 126/258/4 121/259/4 111/260/4 107/261/4
f 113/262/8 121/263/8 126/264/8 115/265/8
f 115/265/9 126/264/9 125/266/9 116/267/9
f 116/267/10 125/266/10 124/268/10 117/269/10
f 117/269/11 124/268/11 123/270/11 118/271/11
f 118/271/12 123/270/12 122/272/12 119/273/12
f 119/273/13 122/272/13 120/274/13 114/275/13
f 113/276/14 112/247/14 111/246/14 121/277/14
f 127/278/5 128/279/5 129/280/5 130/281/5
f 131/282/2 127/283/2 130/284/2 134/285/2 135/286/2 137/287/2 138/288/2 139/289/2 140/290/2 141/291/2 136/292/2
f 127/293/3 131/294/3 132/295/3 128/296/3
f 129/297/1 133/298/1 134/299/1 130/300/1
f 131/294/7 136/301/7 142/302/7 132/295/7
f 128/303/4 132/304/4 142/305/4 144/306/4 145/307/4 146/308/4 147/309/4 148/310/4 143/311/4 133/312/4 129/313/4
f 135/314/8 143/315/8 148/316/8 137/317/8
f 137/317/9 148/316/9 147/318/9 138/319/9
f 138/319/10 147/318/10 146/320/10 139/321/10
f 139/321/11 146/320/11 145/322/11 140/323/11
f 140/323/12 145/322/12 144/324/12 141/325/12
f 141/325/13 144/324/13 142/326/13 136/327/13
f 135/328/14 134/299/14 133/298/14 143/329/14
