# Blender v3.6.2 OBJ File: 'uploads_files_4232500_Coreopsis+Flower.blend'
# www.blender.org
mtllib flower-receptacle.mtl
o flower-receptacle_Circle.004
v 0.547982 1.356792 -0.254539
v 0.548332 1.353417 -0.277226
v 0.533915 1.372494 -0.245495
v 0.520549 1.381444 -0.281825
v 0.520198 1.384820 -0.259139
v 0.534616 1.365743 -0.290869
v 0.581766 1.367764 -0.245869
v 0.582414 1.361518 -0.287844
v 0.555738 1.396815 -0.229136
v 0.531009 1.413375 -0.296354
v 0.530360 1.419620 -0.254379
v 0.557036 1.384324 -0.313087
v 0.582434 1.390565 -0.258990
v 0.582780 1.387236 -0.281360
v 0.568563 1.406047 -0.250073
v 0.555384 1.414872 -0.285896
v 0.555038 1.418201 -0.263525
v 0.569255 1.399390 -0.294813
v -0.189423 1.482011 0.360569
v -0.166093 1.483419 0.371572
v -0.193934 1.494208 0.338248
v -0.151784 1.509220 0.337934
v -0.175114 1.507812 0.326931
v -0.147274 1.497023 0.360255
v -0.215332 1.498866 0.387774
v -0.172167 1.501469 0.408132
v -0.223678 1.521433 0.346475
v -0.145693 1.549208 0.345894
v -0.188858 1.546604 0.325536
v -0.137347 1.526641 0.387192
v -0.205011 1.526645 0.387804
v -0.182006 1.528033 0.398653
v -0.209458 1.538672 0.365795
v -0.167897 1.553474 0.365485
v -0.190902 1.552087 0.354635
v -0.163450 1.541448 0.387493
v -0.233680 1.381451 -0.561668
v -0.256589 1.378014 -0.558676
v -0.222495 1.397438 -0.548829
v -0.257126 1.406552 -0.530006
v -0.234218 1.409989 -0.532998
v -0.268312 1.390565 -0.542846
v -0.229926 1.392622 -0.596983
v -0.272311 1.386263 -0.591448
v -0.209231 1.422203 -0.573228
v -0.273306 1.439065 -0.538403
v -0.230921 1.445424 -0.543938
v -0.294001 1.409484 -0.562158
v -0.243244 1.415838 -0.595722
v -0.265833 1.412449 -0.592772
v -0.232215 1.431603 -0.583062
v -0.266363 1.440589 -0.564502
v -0.243775 1.443978 -0.567452
v -0.277392 1.424825 -0.577162
v 0.317642 0.909179 0.311601
v 0.331591 0.907362 0.304616
v 0.307752 0.920314 0.306614
v 0.325759 0.927814 0.287654
v 0.311811 0.929631 0.294640
v 0.335649 0.916680 0.292642
v 0.322855 0.915009 0.335382
v 0.348663 0.911647 0.322457
v 0.304557 0.935610 0.326154
v 0.337874 0.949487 0.291074
v 0.312066 0.952849 0.303999
v 0.356172 0.928886 0.300302
v 0.331067 0.930842 0.332835
v 0.344821 0.929050 0.325946
v 0.321316 0.941821 0.327916
v 0.339071 0.949216 0.309221
v 0.325318 0.951008 0.316109
v 0.348823 0.938237 0.314140
vt 0.882283 0.499765
vt 0.882283 0.756896
vt 0.650125 0.885462
vt 0.417967 0.756896
vt 0.417967 0.499765
vt 0.650125 0.371200
vt 0.363510 0.583455
vt 0.501642 0.654137
vt 0.460723 0.968806
vt 0.069248 0.703400
vt 0.629917 0.585882
vt 0.638792 0.447073
vt 0.911671 0.269220
vt 0.911671 0.754177
vt 0.507053 0.363323
vt 0.360421 0.429023
vt 0.095873 0.272114
vt 0.486498 0.055781
vt 0.943727 0.266437
vt 0.683800 0.411486
vt 0.503200 0.301396
vt 0.480413 0.016421
vt 0.047309 0.769656
vt 0.040844 0.282600
vt 0.308489 0.408588
vt 0.301980 0.628867
vt 0.502647 0.733706
vt 0.483970 1.018437
vt 0.693725 0.620583
vt 0.943727 0.778671
vt 0.882283 0.499765
vt 0.882283 0.756896
vt 0.650125 0.885462
vt 0.417967 0.756896
vt 0.417967 0.499765
vt 0.650125 0.371200
vt 0.363510 0.583455
vt 0.501642 0.654137
vt 0.460723 0.968806
vt 0.069248 0.703400
vt 0.629917 0.585882
vt 0.638792 0.447073
vt 0.911671 0.269220
vt 0.911671 0.754177
vt 0.507053 0.363323
vt 0.360421 0.429023
vt 0.095873 0.272114
vt 0.486498 0.055781
vt 0.943727 0.266437
vt 0.683800 0.411486
vt 0.503200 0.301396
vt 0.480413 0.016421
vt 0.047309 0.769656
vt 0.040844 0.282600
vt 0.308489 0.408588
vt 0.301980 0.628867
vt 0.502647 0.733706
vt 0.483970 1.018437
vt 0.693725 0.620583
vt 0.943727 0.778671
vt 0.882283 0.499765
vt 0.882283 0.756896
vt 0.650125 0.885462
vt 0.417967 0.756896
vt 0.417967 0.499765
vt 0.650125 0.371200
vt 0.363510 0.583455
vt 0.501642 0.654137
vt 0.460723 0.968806
vt 0.069248 0.703400
vt 0.629917 0.585882
vt 0.638792 0.447073
vt 0.911671 0.269220
vt 0.911671 0.754177
vt 0.507053 0.363323
vt 0.360421 0.429023
vt 0.095873 0.272114
vt 0.486498 0.055781
vt 0.943727 0.266437
vt 0.683800 0.411486
vt 0.503200 0.301396
vt 0.480413 0.016421
vt 0.047309 0.769656
vt 0.040844 0.282600
vt 0.308489 0.408588
vt 0.301980 0.628867
vt 0.502647 0.733706
vt 0.483970 1.018437
vt 0.693725 0.620583
vt 0.943727 0.778671
vt 0.882283 0.499765
vt 0.882283 0.756896
vt 0.650125 0.885462
vt 0.417967 0.756896
vt 0.417967 0.499765
vt 0.650125 0.371200
vt 0.363510 0.583455
vt 0.501642 0.654137
vt 0.460723 0.968806
vt 0.069248 0.703400
vt 0.629917 0.585882
vt 0.638792 0.447073
vt 0.911671 0.269220
vt 0.911671 0.754177
vt 0.507053 0.363323
vt 0.360421 0.429023
vt 0.095873 0.272114
vt 0.486498 0.055781
vt 0.943727 0.266437
vt 0.683800 0.411486
vt 0.503200 0.301396
vt 0.480413 0.016421
vt 0.047309 0.769656
vt 0.040844 0.282600
vt 0.308489 0.408588
vt 0.301980 0.628867
vt 0.502647 0.733706
vt 0.483970 1.018437
vt 0.693725 0.620583
vt 0.943727 0.778671
vn -0.2271 -0.8765 0.4244
vn -0.5871 -0.4743 0.6561
vn -0.9385 -0.1589 0.3066
vn -0.9297 -0.2459 -0.2740
vn -0.5699 -0.6479 -0.5053
vn -0.2187 -0.9632 -0.1563
vn -0.5242 0.7624 0.3793
vn -0.5066 0.6168 -0.6024
vn 0.6788 -0.4519 0.5787
vn 0.0689 0.2278 0.9713
vn 0.1022 -0.0615 -0.9929
vn 0.6945 -0.5956 -0.4036
vn 0.6312 0.6850 0.3639
vn 0.3642 0.9263 0.0966
vn 0.3732 0.8609 -0.3457
vn 0.6475 0.5559 -0.5212
vn 0.9138 0.3150 -0.2562
vn 0.9065 0.3787 0.1866
vn -0.1965 -0.9689 -0.1502
vn -0.2992 -0.6914 -0.6576
vn 0.1288 -0.3823 -0.9150
vn 0.6592 -0.3510 -0.6650
vn 0.7617 -0.6284 -0.1580
vn 0.3341 -0.9373 0.0994
vn -0.2063 0.5663 -0.7980
vn 0.6891 0.6212 -0.3731
vn -0.7566 -0.4266 0.4955
vn -0.9305 0.0419 -0.3638
vn 0.8615 0.1535 0.4840
vn 0.1400 -0.3700 0.9184
vn -0.6632 0.7028 0.2573
vn -0.3365 0.9396 0.0620
vn 0.0664 0.9648 0.2544
vn 0.1437 0.7546 0.6403
vn -0.1807 0.5185 0.8358
vn -0.5847 0.4919 0.6452
vn 0.4528 -0.8765 0.1632
vn 0.7341 -0.4743 0.4859
vn 0.4393 -0.1589 0.8842
vn -0.1365 -0.2459 0.9596
vn -0.4175 -0.6479 0.6371
vn -0.1230 -0.9632 0.2390
vn 0.4512 0.7624 0.4638
vn -0.5227 0.6168 0.5885
vn 0.4743 -0.4519 -0.7555
vn 0.9511 0.2278 -0.2088
vn -0.9972 -0.0615 0.0427
vn -0.4999 -0.5956 -0.6288
vn 0.2687 0.6850 -0.6772
vn 0.0428 0.9263 -0.3743
vn -0.3961 0.8609 -0.3192
vn -0.6095 0.5559 -0.5652
vn -0.3859 0.3150 -0.8671
vn 0.0534 0.3787 -0.9240
vn -0.4812 -0.8736 -0.0722
vn -0.8511 -0.4570 -0.2585
vn -0.6993 -0.1088 -0.7065
vn -0.1780 -0.1773 -0.9679
vn 0.1914 -0.5937 -0.7816
vn 0.0400 -0.9418 -0.3339
vn -0.5760 0.7815 -0.2397
vn 0.3067 0.6670 -0.6790
vn -0.2074 -0.5127 0.8331
vn -0.8341 0.1914 0.5173
vn 0.9310 -0.0356 -0.3632
vn 0.6749 -0.6252 0.3919
vn -0.0377 0.6313 0.7746
vn 0.0793 0.8977 0.4335
vn 0.4775 0.8462 0.2365
vn 0.7584 0.5302 0.3791
vn 0.6432 0.2644 0.7186
vn 0.2453 0.3140 0.9172
usemtl texture_2
s 1
f 1/1/1 3/2/2 5/3/3 4/4/4 6/5/5 2/6/6
f 4/7/4 5/8/3 11/9/7 10/10/8
f 3/11/2 1/12/1 7/13/9 9/14/10
f 5/8/3 3/11/2 9/14/10 11/9/7
f 2/15/6 6/16/5 12/17/11 8/18/12
f 1/12/1 2/15/6 8/18/12 7/13/9
f 6/16/5 4/7/4 10/10/8 12/17/11
f 9/19/10 15/20/13 17/21/14 11/22/7
f 12/23/11 10/24/8 16/25/15 18/26/16
f 11/22/7 17/21/14 16/25/15 10/24/8
f 12/23/11 18/26/16 14/27/17 8/28/12
f 8/28/12 14/27/17 13/29/18 7/30/9
f 13/29/18 14/27/17 18/26/16 16/25/15 17/21/14 15/20/13
f 7/30/9 13/29/18 15/20/13 9/19/10
f 19/31/19 21/32/20 23/33/21 22/34/22 24/35/23 20/36/24
f 22/37/22 23/38/21 29/39/25 28/40/26
f 21/41/20 19/42/19 25/43/27 27/44/28
f 23/38/21 21/41/20 27/44/28 29/39/25
f 20/45/24 24/46/23 30/47/29 26/48/30
f 19/42/19 20/45/24 26/48/30 25/43/27
f 24/46/23 22/37/22 28/40/26 30/47/29
f 27/49/28 33/50/31 35/51/32 29/52/25
f 30/53/29 28/54/26 34/55/33 36/56/34
f 29/52/25 35/51/32 34/55/33 28/54/26
f 30/53/29 36/56/34 32/57/35 26/58/30
f 26/58/30 32/57/35 31/59/36 25/60/27
f 31/59/36 32/57/35 36/56/34 34/55/33 35/51/32 33/50/31
f 25/60/27 31/59/36 33/50/31 27/49/28
f 37/61/37 39/62/38 41/63/39 40/64/40 42/65/41 38/66/42
f 40/67/40 41/68/39 47/69/43 46/70/44
f 39/71/38 37/72/37 43/73/45 45/74/46
f 41/68/39 39/71/38 45/74/46 47/69/43
f 38/75/42 42/76/41 48/77/47 44/78/48
f 37/72/37 38/75/42 44/78/48 43/73/45
f 42/76/41 40/67/40 46/70/44 48/77/47
f 45/79/46 51/80/49 53/81/50 47/82/43
f 48/83/47 46/84/44 52/85/51 54/86/52
f 47/82/43 53/81/50 52/85/51 46/84/44
f 48/83/47 54/86/52 50/87/53 44/88/48
f 44/88/48 50/87/53 49/89/54 43/90/45
f 49/89/54 50/87/53 54/86/52 52/85/51 53/81/50 51/80/49
f 43/90/45 49/89/54 51/80/49 45/79/46
f 55/91/55 57/92/56 59/93/57 58/94/58 60/95/59 56/96/60
f 58/97/58 59/98/57 65/99/61 64/100/62
f 57/101/56 55/102/55 61/103/63 63/104/64
f 59/98/57 57/101/56 63/104/64 65/99/61
f 56/105/60 60/106/59 66/107/65 62/108/66
f 55/102/55 56/105/60 62/108/66 61/103/63
f 60/106/59 58/97/58 64/100/62 66/107/65
f 63/109/64 69/110/67 71/111/68 65/112/61
f 66/113/65 64/114/62 70/115/69 72/116/70
f 65/112/61 71/111/68 70/115/69 64/114/62
f 66/113/65 72/116/70 68/117/71 62/118/66
f 62/118/66 68/117/71 67/119/72 61/120/63
f 67/119/72 68/117/71 72/116/70 70/115/69 71/111/68 69/110/67
f 61/120/63 67/119/72 69/110/67 63/109/64
