# Blender v3.6.2 OBJ File: 'uploads_files_4162251_fountain.blend'
# www.blender.org
mtllib water1.mtl
o water1_water.002_Окружность.001
v -0.026811 1.350646 -0.134567
v -0.052593 1.350646 -0.126746
v -0.076353 1.350646 -0.114046
v -0.097180 1.350646 -0.096954
v -0.114271 1.350646 -0.076129
v -0.126971 1.350646 -0.052368
v -0.134791 1.350646 -0.026587
v -0.137432 1.350646 0.000225
v -0.134791 1.350646 0.027037
v -0.126971 1.350646 0.052818
v -0.114271 1.350646 0.076578
v -0.097180 1.350646 0.097404
v -0.076353 1.350646 0.114496
v -0.052593 1.350646 0.127196
v -0.026811 1.350646 0.135017
v 0.000000 1.350646 0.137658
v 0.026812 1.350646 0.135017
v 0.052593 1.350646 0.127196
v 0.076353 1.350646 0.114496
v 0.097180 1.350646 0.097404
v 0.114271 1.350646 0.076578
v 0.126971 1.350646 0.052818
v 0.134791 1.350646 0.027037
v 0.137432 1.350646 0.000225
v 0.134791 1.350646 -0.026587
v 0.126971 1.350646 -0.052368
v 0.114271 1.350646 -0.076129
v 0.097180 1.350646 -0.096954
v 0.076353 1.350646 -0.114046
v 0.052593 1.350646 -0.126746
v 0.026811 1.350646 -0.134567
v 0.000000 1.350646 -0.137207
vt 0.000000 0.000000
vt 0.000000 0.000000
vt 0.000000 0.000000
vt 0.000000 0.000000
vt 0.000000 0.000000
vt 0.000000 0.000000
vt 0.000000 0.000000
vt 0.000000 0.000000
vt 0.000000 0.000000
vt 0.000000 0.000000
vt 0.000000 0.000000
vt 0.000000 0.000000
vt 0.000000 0.000000
vt 0.000000 0.000000
vt 0.000000 0.000000
vt 0.000000 0.000000
vt 0.000000 0.000000
vt 0.000000 0.000000
vt 0.000000 0.000000
vt 0.000000 0.000000
vt 0.000000 0.000000
vt 0.000000 0.000000
vt 0.000000 0.000000
vt 0.000000 0.000000
vt 0.000000 0.000000
vt 0.000000 0.000000
vt 0.000000 0.000000
vt 0.000000 0.000000
vt 0.000000 0.000000
vt 0.000000 0.000000
vt 0.000000 0.000000
vt 0.000000 0.000000
vn 0.0000 1.0000 0.0000
usemtl water_daz
s off
f 1/1/1 2/2/1 3/3/1 4/4/1 5/5/1 6/6/1 7/7/1 8/8/1 9/9/1 10/10/1 11/11/1 12/12/1 13/13/1 14/14/1 15/15/1 16/16/1 17/17/1 18/18/1 19/19/1 20/20/1 21/21/1 22/22/1 23/23/1 24/24/1 25/25/1 26/26/1 27/27/1 28/28/1 29/29/1 30/30/1 31/31/1 32/32/1
