# Blender v3.6.2 OBJ File: 'uploads_files_4162251_fountain.blend'
# www.blender.org
mtllib water3.mtl
o water3_water.001_Окружность.001
v -0.053486 0.782074 -0.268614
v -0.104916 0.782074 -0.253013
v -0.152314 0.782074 -0.227678
v -0.193859 0.782074 -0.193582
v -0.227954 0.782074 -0.152037
v -0.253289 0.782074 -0.104639
v -0.268890 0.782074 -0.053209
v -0.274158 0.782074 0.000277
v -0.268890 0.782074 0.053762
v -0.253289 0.782074 0.105192
v -0.227954 0.782074 0.152591
v -0.193859 0.782074 0.194136
v -0.152314 0.782074 0.228231
v -0.104916 0.782074 0.253566
v -0.053486 0.782074 0.269167
v 0.000000 0.782074 0.274435
v 0.053486 0.782074 0.269167
v 0.104916 0.782074 0.253566
v 0.152314 0.782074 0.228231
v 0.193859 0.782074 0.194136
v 0.227954 0.782074 0.152591
v 0.253289 0.782074 0.105192
v 0.268890 0.782074 0.053762
v 0.274158 0.782074 0.000276
v 0.268890 0.782074 -0.053209
v 0.253289 0.782074 -0.104639
v 0.227954 0.782074 -0.152038
v 0.193859 0.782074 -0.193583
v 0.152314 0.782074 -0.227678
v 0.104915 0.782074 -0.253013
v 0.053485 0.782074 -0.268614
v 0.000000 0.782074 -0.273882
vt 0.301881 0.821482
vt 0.350325 0.834330
vt 0.399718 0.834330
vt 0.448162 0.821482
vt 0.493795 0.796280
vt 0.534864 0.759691
vt 0.569790 0.713123
vt 0.597231 0.658365
vt 0.616133 0.597520
vt 0.625769 0.532929
vt 0.625769 0.467071
vt 0.616133 0.402479
vt 0.597231 0.341635
vt 0.569790 0.286877
vt 0.534864 0.240308
vt 0.493795 0.203720
vt 0.448161 0.178518
vt 0.399718 0.165670
vt 0.350325 0.165670
vt 0.301881 0.178518
vt 0.256248 0.203721
vt 0.215179 0.240309
vt 0.180253 0.286877
vt 0.152812 0.341635
vt 0.133910 0.402480
vt 0.124274 0.467072
vt 0.124274 0.532929
vt 0.133910 0.597521
vt 0.152812 0.658365
vt 0.180253 0.713123
vt 0.215179 0.759691
vt 0.256248 0.796280
vn -0.0000 -1.0000 -0.0000
usemtl water_daz
s off
f 1/1/1 32/2/1 31/3/1 30/4/1 29/5/1 28/6/1 27/7/1 26/8/1 25/9/1 24/10/1 23/11/1 22/12/1 21/13/1 20/14/1 19/15/1 18/16/1 17/17/1 16/18/1 15/19/1 14/20/1 13/21/1 12/22/1 11/23/1 10/24/1 9/25/1 8/26/1 7/27/1 6/28/1 5/29/1 4/30/1 3/31/1 2/32/1
